 0
SECTION
 2
ENTITIES
  0
LINE
 8
GROUP0
10
2775.1658644552
20
415.135309092919
30
4.02930614198382e-005
11
2775.16581761078
21
665.135300711021
31
0.000145280370272971
  0
LINE
 8
GROUP0
10
2792.38622354563
20
400.479445620259
30
4.67188394754459e-005
11
2792.21585267707
21
399.185350394747
31
4.59038845477266e-005
  0
LINE
 8
GROUP0
10
2795.49022456457
20
379.502258992034
30
2.21524030877163e-005
11
2795.79723530511
21
379.266681365234
31
1.33229787740774e-005
  0
LINE
 8
GROUP0
10
2796.21134577727
20
378.5494209875
30
1.31058123882255e-005
11
2796.26586445521
21
378.135310515336
31
1.29414836466779e-005
  0
LINE
 8
GROUP0
10
2793.12038313314
20
378.5494209875
30
1.2453555584635e-005
11
2793.28022380915
21
378.935310515336
31
1.26511358143233e-005
  0
LINE
 8
GROUP0
10
2773.62038358158
20
397.221196949684
30
3.59464553676858e-005
11
2773.56586445588
21
397.635307362893
31
3.57365635252904e-005
  0
LINE
 8
GROUP0
10
2801.54597969599
20
396.685350394747
30
4.24293307961676e-005
11
2802.04548180852
21
397.891255169234
31
4.31217167379927e-005
  0
LINE
 8
GROUP0
10
3082.44594179024
20
397.685348900472
30
0.000109802660246849
11
3082.94544390276
21
398.89125367496
31
0.000109802660246849
  0
LINE
 8
GROUP0
10
3076.8217195458
20
405.014978031918
30
0.000109802660246849
11
3075.61581477131
21
404.515475919395
31
0.000109802660246849
  0
LINE
 8
GROUP0
10
2793.68031877114
20
395.649816488815
30
4.32977283976399e-005
11
2794.71585267707
21
394.855223375825
31
4.25730437328298e-005
  0
LINE
 8
GROUP0
10
3082.94544390276
20
401.479444125985
30
0.000109802660246849
11
3082.44594179024
21
402.685348900472
31
0.000109802660246849
  0
LINE
 8
GROUP0
10
3074.58028086538
20
396.64981499454
30
0.000109802660246849
11
3075.61581477131
21
395.85522188155
31
0.000109802660246849
  0
LINE
 8
GROUP0
10
2799.71585267707
20
403.515477413668
30
4.72675124806088e-005
11
2798.50994790258
21
404.014979526191
31
4.78322370057072e-005
  0
LINE
 8
GROUP0
10
3079.40990999683
20
395.355719769027
30
0.000109802660246849
11
3080.61581477131
21
395.85522188155
31
0.000109802660246849
  0
LINE
 8
GROUP0
10
3081.65134867725
20
403.720882806405
30
0.000109802660246849
11
3080.61581477131
21
404.515475919395
31
0.000109802660246849
  0
LINE
 8
GROUP0
10
2802.04548180852
20
397.891255169234
30
4.31217167379927e-005
11
2802.21585267707
21
399.185350394747
31
4.39366716431522e-005
  0
LINE
 8
GROUP0
10
2798.50994790258
20
404.014979526191
30
4.78322370057072e-005
11
2797.21585267707
21
404.185350394746
31
4.8198516338438e-005
  0
LINE
 8
GROUP0
10
2765.16581571424
20
675.135300711024
30
0.000144837750634963
11
2765.16581286945
21
690.135300711005
31
0.000135489505481345
  0
LINE
 8
GROUP0
10
2765.16586388715
20
405.135309092919
30
3.87403391680863e-005
11
2765.16586445521
21
390.135309092921
31
2.97300081165019e-005
  0
LINE
 8
GROUP0
10
2773.62038268606
20
398.049417893999
30
3.5551236456044e-005
11
2773.78022294481
21
398.43530759466
31
3.54031038648728e-005
  0
LINE
 8
GROUP0
10
2812.16581286944
20
702.135300710988
30
0.000172088136798543
11
3062.16580448756
21
702.135347555396
31
0.000222953976638607
  0
LINE
 8
GROUP0
10
2793.86586445521
20
379.520951161391
30
1.30233839106708e-005
11
2794.25175398304
21
379.680791837398
31
1.31726836746893e-005
  0
LINE
 8
GROUP0
10
2774.03449482929
20
396.503937019725
30
3.63820189532404e-005
11
2773.78022467484
21
396.835307594685
31
3.61666082108414e-005
  0
LINE
 8
GROUP0
10
3082.44594179024
20
402.685348900472
30
0.000109802660246849
11
3081.65134867725
21
403.720882806405
31
0.000109802660246849
  0
LINE
 8
GROUP0
10
2802.04548180852
20
400.479445620259
30
4.48186577155951e-005
11
2801.54597969599
21
401.685350394746
31
4.57075690391662e-005
  0
LINE
 8
GROUP0
10
3078.8414593357
20
703.502310828354
30
0.00022227055534767
11
3078.86580448754
21
703.520991520384
31
0.000213833468368563
  0
LINE
 8
GROUP0
10
3080.61581477131
20
404.515475919395
30
0.000109802660246849
11
3079.40990999683
21
405.014978031918
31
0.000109802660246849
  0
LINE
 8
GROUP0
10
3076.8217195458
20
395.355719769027
30
0.000109802660246849
11
3078.11581477131
21
395.185348900472
31
0.000109802660246849
  0
LINE
 8
GROUP0
10
2775.16586272583
20
399.235309092894
30
3.53335192968984e-005
11
2775.57997325694
21
399.180790862722
31
3.54528290106515e-005
  0
LINE
 8
GROUP0
10
2793.12038313314
20
377.721200043173
30
1.21018889572611e-005
11
2793.06586445521
21
378.135310515337
31
1.22662177213684e-005
  0
LINE
 8
GROUP0
10
2795.07997492737
20
376.589829193274
30
1.20350176707973e-005
11
2794.66586445521
21
376.535310515337
31
1.1924482925707e-005
  0
LINE
 8
GROUP0
10
2792.38622354563
20
397.891255169234
30
4.50218984752837e-005
11
2792.88572565815
21
396.685350394747
31
4.41329871517127e-005
  0
LINE
 8
GROUP0
10
3078.53443363764
20
703.266721724228
30
0.000213649886068978
11
3078.8414593357
21
703.502310828354
31
0.00022227055534767
  0
LINE
 8
GROUP0
10
2796.05150510126
20
378.935310515336
30
1.32359332894794e-005
11
2796.21134577727
21
378.5494209875
31
1.31058123882255e-005
  0
LINE
 8
GROUP0
10
2793.06586445521
20
378.135310515337
30
1.22662177213684e-005
11
2793.12038313314
21
378.5494209875
31
1.2453555584635e-005
  0
LINE
 8
GROUP0
10
3074.58028086538
20
403.720882806405
30
0.000109802660246849
11
3073.78568775239
21
402.685348900472
31
0.000109802660246849
  0
LINE
 8
GROUP0
10
3081.65134867725
20
396.64981499454
30
0.000109802660246849
11
3082.44594179024
21
397.685348900472
31
0.000109802660246849
  0
LINE
 8
GROUP0
10
3082.94544390276
20
398.89125367496
30
0.000109802660246849
11
3083.11581477131
21
400.185348900472
31
0.000109802660246849
  0
LINE
 8
GROUP0
10
2774.75175231262
20
399.180789967194
30
3.52662411231108e-005
11
2775.16586272583
21
399.235309092894
31
3.53335192968984e-005
  0
LINE
 8
GROUP0
10
2774.36586295762
20
399.020948873939
30
3.52555794163933e-005
11
2774.75175231262
21
399.180789967194
31
3.52662411231108e-005
  0
LINE
 8
GROUP0
10
2795.79723530511
20
379.266681365234
30
1.33229787740774e-005
11
2796.05150510126
21
378.935310515336
31
1.32359332894794e-005
  0
LINE
 8
GROUP0
10
2776.29723408243
20
398.766681166114
30
3.58120283550534e-005
11
2776.53277494328
21
398.459719027149
31
4.19606909439096e-005
  0
LINE
 8
GROUP0
10
2776.71134622566
20
397.22120029184
30
3.66428108522499e-005
11
2776.55150596691
21
396.835310591179
31
3.6790943443421e-005
  0
LINE
 8
GROUP0
10
2775.1658644552
20
415.135309092919
30
4.02930614198382e-005
11
2765.16586388715
21
405.135309092919
31
3.87403391680863e-005
  0
LINE
 8
GROUP0
10
2795.49020960704
20
376.768350561304
30
2.06479610760368e-005
11
2795.46586445521
21
376.749669869282
31
1.21843174348157e-005
  0
LINE
 8
GROUP0
10
2776.53277494328
20
398.459719027149
30
4.19606909439096e-005
11
2776.55150423688
21
398.435310591154
31
3.60274390974524e-005
  0
LINE
 8
GROUP0
10
2794.66586445521
20
379.735310515335
30
1.32832184197795e-005
11
2795.07997492737
21
379.680791837398
31
1.33474553612345e-005
  0
LINE
 8
GROUP0
10
2794.25175398304
20
379.680791837398
30
1.31726836746893e-005
11
2794.66586445521
21
379.735310515335
31
1.32832184197795e-005
  0
LINE
 8
GROUP0
10
3098.03443486031
20
681.503980223536
30
0.000226737687421519
11
3097.79889399945
21
681.810942362495
31
0.000233049489357739
  0
LINE
 8
GROUP0
10
3072.16580448756
20
712.135349451931
30
0.000226803745429649
11
3087.16580448754
21
712.13535229673
31
0.000215910617982296
  0
LINE
 8
GROUP0
10
2794.25175398304
20
376.589829193275
30
1.18602459842521e-005
11
2793.86586445521
21
376.749669869282
31
1.1846684472161e-005
  0
LINE
 8
GROUP0
10
2775.9658629576
20
399.020950603966
30
3.56160395565297e-005
11
2776.29723408243
21
398.766681166114
31
3.58120283550534e-005
  0
LINE
 8
GROUP0
10
2776.29723652905
20
396.503939466353
30
3.68917865502638e-005
11
2775.96586595409
21
396.2496693119
31
3.69384678693407e-005
  0
LINE
 8
GROUP0
10
2796.21134577727
20
377.721200043172
30
1.27541457608515e-005
11
2796.05150510126
21
377.335310515336
31
1.25565655311632e-005
  0
LINE
 8
GROUP0
10
2775.57997659909
20
396.089828218645
30
3.6927806185183e-005
11
2775.16586618589
21
396.035309092945
31
3.68605280113954e-005
  0
LINE
 8
GROUP0
10
2774.03449238266
20
398.766678719487
30
3.530226075803e-005
11
2774.36586295762
21
399.020948873939
31
3.52555794163933e-005
  0
LINE
 8
GROUP0
10
2776.55150596691
20
396.835310591179
30
3.6790943443421e-005
11
2776.29723652905
21
396.503939466353
31
3.68917865502638e-005
  0
LINE
 8
GROUP0
10
2798.50994790258
20
394.355721263302
30
4.14991670401932e-005
11
2799.71585267707
21
394.855223375825
31
4.15894372805425e-005
  0
LINE
 8
GROUP0
10
3073.11581477131
20
400.185348900472
30
0.000109802660246849
11
3073.28618563987
21
398.89125367496
31
0.000109802660246849
  0
LINE
 8
GROUP0
10
2795.7972353051
20
377.003939665438
30
1.23622076884544e-005
11
2795.49020960704
21
376.768350561304
31
2.06479610760368e-005
  0
LINE
 8
GROUP0
10
2776.76586445583
20
397.635310822947
30
3.64574837830034e-005
11
2776.71134622566
21
397.22120029184
31
3.66428108522499e-005
  0
LINE
 8
GROUP0
10
2796.26586445521
20
378.135310515336
30
1.29414836466779e-005
11
2796.21134577727
21
377.721200043172
31
1.27541457608515e-005
  0
LINE
 8
GROUP0
10
2793.28022380915
20
378.935310515336
30
1.26511358143233e-005
11
2793.53449360531
21
379.266681365235
31
1.28454936570321e-005
  0
LINE
 8
GROUP0
10
3100.53271467846
20
681.810942609543
30
0.00023421595130273
11
3100.29717656007
21
681.503982670163
31
0.000227200691130847
  0
LINE
 8
GROUP0
10
2774.36586595412
20
396.249667581873
30
3.65780077517641e-005
11
2774.03449482929
21
396.503937019725
31
3.63820189532404e-005
  0
LINE
 8
GROUP0
10
3097.79889399945
20
681.810942362495
30
0.000233049489357739
11
3097.78016470585
21
681.835350798495
31
0.000227129209718058
  0
LINE
 8
GROUP0
10
2773.79895426427
20
398.4597187801
30
4.19518631854743e-005
11
2774.03449238266
21
398.766678719487
31
3.530226075803e-005
  0
LINE
 8
GROUP0
10
2800.751386583
20
402.720884300679
30
4.65428277932389e-005
11
2799.71585267707
21
403.515477413668
31
4.72675124806088e-005
  0
LINE
 8
GROUP0
10
2792.88572565815
20
401.685350394746
30
4.74112253947112e-005
11
2792.38622354563
21
400.479445620259
31
4.67188394754459e-005
  0
LINE
 8
GROUP0
10
2775.96586595409
20
396.2496693119
30
3.69384678693407e-005
11
2775.57997659909
21
396.089828218645
31
3.6927806185183e-005
  0
LINE
 8
GROUP0
10
2793.86586445521
20
376.749669869282
30
1.1846684472161e-005
11
2793.53449360531
21
377.003939665439
31
1.18847225714092e-005
  0
LINE
 8
GROUP0
10
2802.16586445518
20
368.135311937725
30
2.06150457730203e-005
11
2812.16586445518
21
378.135313834257
31
2.96777941134252e-005
  0
LINE
 8
GROUP0
10
2775.16586618589
20
396.035309092945
30
3.68605280113954e-005
11
2774.75175565478
21
396.089827323118
31
3.67412182750826e-005
  0
LINE
 8
GROUP0
10
2794.66586445521
20
376.535310515337
30
1.1924482925707e-005
11
2794.25175398304
21
376.589829193275
31
1.18602459842521e-005
  0
LINE
 8
GROUP0
10
3078.11581477131
20
405.185348900472
30
0.000109802660246849
11
3076.8217195458
21
405.014978031918
31
0.000109802660246849
  0
LINE
 8
GROUP0
10
3079.40990999683
20
405.014978031918
30
0.000109802660246849
11
3078.11581477131
21
405.185348900472
31
0.000109802660246849
  0
LINE
 8
GROUP0
10
2794.71585267707
20
394.855223375825
30
4.25730437328298e-005
11
2795.92175745156
21
394.355721263302
31
4.20083192077314e-005
  0
LINE
 8
GROUP0
10
2773.56586445588
20
397.635307362893
30
3.57365635252904e-005
11
2773.62038268606
21
398.049417893999
31
3.5551236456044e-005
  0
LINE
 8
GROUP0
10
2793.68031877114
20
402.720884300679
30
4.79338573855514e-005
11
2792.88572565815
21
401.685350394746
31
4.74112253947112e-005
  0
LINE
 8
GROUP0
10
3100.55144599792
20
681.835353794989
30
0.000227696271115541
11
3100.53271467846
21
681.810942609543
31
0.00023421595130273
  0
LINE
 8
GROUP0
10
3062.1658560733
20
378.135360678664
30
8.41630788913861e-005
11
2812.16586445518
21
378.135313834257
31
2.96777941134252e-005
  0
LINE
 8
GROUP0
10
3099.16580448753
20
665.135352296733
30
0.000217606081071864
11
3099.16585133196
21
415.135360678634
31
0.000105708591262221
  0
LINE
 8
GROUP0
10
2795.46586445521
20
379.52095116139
30
1.33610168733256e-005
11
2795.49022456457
21
379.502258992034
31
2.21524030877163e-005
  0
LINE
 8
GROUP0
10
2776.55150423688
20
398.435310591154
30
3.60274390974524e-005
11
2776.71134533013
21
398.049421236155
31
3.6247591940608e-005
  0
LINE
 8
GROUP0
10
2775.57997325694
20
399.180790862722
30
3.54528290106515e-005
11
2775.9658629576
21
399.020950603966
31
3.56160395565297e-005
  0
LINE
 8
GROUP0
10
2793.53449360531
20
379.266681365235
30
1.28454936570321e-005
11
2793.86586445521
21
379.520951161391
31
1.30233839106708e-005
  0
LINE
 8
GROUP0
10
2793.53449360531
20
377.003939665439
30
1.18847225714092e-005
11
2793.28022380915
21
377.335310515337
31
1.19717680785669e-005
  0
LINE
 8
GROUP0
10
2799.71585267707
20
394.855223375825
30
4.15894372805425e-005
11
2800.751386583
21
395.649816488815
31
4.19066988053274e-005
  0
LINE
 8
GROUP0
10
3073.78568775239
20
402.685348900472
30
0.000109802660246849
11
3073.28618563987
21
401.479444125985
31
0.000109802660246849
  0
LINE
 8
GROUP0
10
2774.75175565478
20
396.089827323118
30
3.67412182750826e-005
11
2774.36586595412
21
396.249667581873
31
3.65780077517641e-005
  0
LINE
 8
GROUP0
10
2796.05150510126
20
377.335310515336
30
1.25565655311632e-005
11
2795.7972353051
21
377.003939665438
31
1.23622076884544e-005
  0
LINE
 8
GROUP0
10
2793.28022380915
20
377.335310515337
30
1.19717680785669e-005
11
2793.12038313314
21
377.721200043173
31
1.21018889572611e-005
  0
LINE
 8
GROUP0
10
2776.71134533013
20
398.049421236155
30
3.6247591940608e-005
11
2776.76586445583
21
397.635310822947
31
3.64574837830034e-005
  0
LINE
 8
GROUP0
10
2773.78022467484
20
396.835307594685
30
3.61666082108414e-005
11
2773.62038358158
21
397.221196949684
31
3.59464553676858e-005
  0
LINE
 8
GROUP0
10
2794.71585267707
20
403.515477413668
30
4.8251118932896e-005
11
2793.68031877114
21
402.720884300679
31
4.79338573855514e-005
  0
LINE
 8
GROUP0
10
2773.78022294481
20
398.43530759466
30
3.54031038648728e-005
11
2773.79895426427
21
398.4597187801
31
4.19518631854743e-005
  0
LINE
 8
GROUP0
10
2795.46586445521
20
376.749669869282
30
1.21843174348157e-005
11
2795.07997492737
21
376.589829193274
31
1.20350176707973e-005
  0
LINE
 8
GROUP0
10
2792.21585267707
20
399.185350394747
30
4.59038845477266e-005
11
2792.38622354563
21
397.891255169234
31
4.50218984752837e-005
  0
LINE
 8
GROUP0
10
3078.86580448753
20
700.749710228275
30
0.000212623140604151
11
3078.84144437817
21
700.768402397624
31
0.000221420154636931
  0
LINE
 8
GROUP0
10
3078.84144437817
20
700.768402397624
30
0.000221420154636931
11
3078.53443363764
21
701.003980024432
31
0.000212661657578828
  0
LINE
 8
GROUP0
10
3075.61581477131
20
404.515475919395
30
0.000109802660246849
11
3074.58028086538
21
403.720882806405
31
0.000109802660246849
  0
LINE
 8
GROUP0
10
2795.92175745156
20
394.355721263302
30
4.20083192077314e-005
11
2797.21585267707
21
394.185350394748
31
4.16420398524409e-005
  0
LINE
 8
GROUP0
10
3073.78568775239
20
397.685348900472
30
0.000109802660246849
11
3074.58028086538
21
396.64981499454
31
0.000109802660246849
  0
LINE
 8
GROUP0
10
3075.61581477131
20
395.85522188155
30
0.000109802660246849
11
3076.8217195458
21
395.355719769027
31
0.000109802660246849
  0
LINE
 8
GROUP0
10
3078.11581477131
20
395.185348900472
30
0.000109802660246849
11
3079.40990999683
21
395.355719769027
31
0.000109802660246849
  0
LINE
 8
GROUP0
10
2795.92175745156
20
404.014979526191
30
4.83413891732454e-005
11
2794.71585267707
21
403.515477413668
31
4.8251118932896e-005
  0
LINE
 8
GROUP0
10
2802.21585267707
20
399.185350394747
30
4.39366716431522e-005
11
2802.04548180852
21
400.479445620259
31
4.48186577155951e-005
  0
LINE
 8
GROUP0
10
3073.28618563987
20
401.479444125985
30
0.000109802660246849
11
3073.11581477131
21
400.185348900472
31
0.000109802660246849
  0
LINE
 8
GROUP0
10
2800.751386583
20
395.649816488815
30
4.19066988053274e-005
11
2801.54597969599
21
396.685350394747
31
4.24293307961676e-005
  0
LINE
 8
GROUP0
10
2797.21585267707
20
394.185350394748
30
4.16420398524409e-005
11
2798.50994790258
21
394.355721263302
31
4.14991670401932e-005
  0
LINE
 8
GROUP0
10
2801.54597969599
20
401.685350394746
30
4.57075690391662e-005
11
2800.751386583
21
402.720884300679
31
4.65428277932389e-005
  0
LINE
 8
GROUP0
10
3083.11581477131
20
400.185348900472
30
0.000109802660246849
11
3082.94544390276
21
401.479444125985
31
0.000109802660246849
  0
LINE
 8
GROUP0
10
3080.61581477131
20
395.85522188155
30
0.000109802660246849
11
3081.65134867725
21
396.64981499454
31
0.000109802660246849
  0
LINE
 8
GROUP0
10
3073.28618563987
20
398.89125367496
30
0.000109802660246849
11
3073.78568775239
21
397.685348900472
31
0.000109802660246849
  0
LINE
 8
GROUP0
10
2792.88572565815
20
396.685350394747
30
4.41329871517127e-005
11
2793.68031877114
21
395.649816488815
31
4.32977283976399e-005
  0
LINE
 8
GROUP0
10
2793.28017308842
20
701.335299212099
30
0.000172221005723294
11
2793.12033199516
21
701.721188567098
31
0.000172495020670738
  0
LINE
 8
GROUP0
10
3080.0799149597
20
703.680832196391
30
0.00021416902973872
11
3080.46580448753
21
703.520991520383
31
0.000214183687089786
  0
LINE
 8
GROUP0
10
2796.21585417127
20
685.085312488969
30
0.000168667861288085
11
2794.92175894575
21
684.914941620414
31
0.00016792874802789
  0
LINE
 8
GROUP0
10
3079.66580448753
20
703.735350874328
30
0.000214102196894039
11
3080.0799149597
21
703.680832196391
31
0.00021416902973872
  0
LINE
 8
GROUP0
10
3079.25169401537
20
700.589869552268
30
0.000212637797977777
11
3078.86580448753
21
700.749710228275
31
0.000212623140604151
  0
LINE
 8
GROUP0
10
2794.2517007262
20
703.680781584608
30
0.000172546996488165
11
2794.66581113941
21
703.735300710309
31
0.000172284662857081
  0
LINE
 8
GROUP0
10
3074.61581626551
20
676.755183975826
30
0.000226797451444938
11
3075.82172104
21
676.255681863303
31
0.000227489837364203
  0
LINE
 8
GROUP0
10
2796.21585417127
20
675.085312488972
30
0.000160144171897514
11
2797.50994939678
21
675.255683357526
31
0.000160883285135149
  0
LINE
 8
GROUP0
10
3097.62037332883
20
397.221250206501
30
8.41654272466741e-005
11
3097.56585465089
21
397.635360678665
31
8.43343521951923e-005
  0
LINE
 8
GROUP0
10
3079.61581626551
20
685.415438013669
30
0.000231779346020922
11
3078.40991149102
21
685.914940126193
31
0.000231086960101656
  0
LINE
 8
GROUP0
10
3075.82172104
20
676.255681863303
30
0.000227489837364203
11
3077.11581626551
21
676.085310994748
31
0.000228304792269363
  0
LINE
 8
GROUP0
10
2773.7801736458
20
681.835300711003
30
0.000138932971944961
11
2773.62033296979
21
682.221190238839
31
0.000139068348835103
  0
LINE
 8
GROUP0
10
3099.16585465089
20
399.235360678664
30
8.53833539634863e-005
11
3099.57996512306
21
399.180842000726
31
8.54501867856072e-005
  0
LINE
 8
GROUP0
10
3080.65135017144
20
684.62084490068
30
0.000232301978011762
11
3079.61581626551
21
685.415438013669
31
0.000231779346020922
  0
LINE
 8
GROUP0
10
2776.53276276855
20
681.810940601631
30
0.000148301159021713
11
2776.29718514175
21
681.503929861104
31
0.000139322218731586
  0
LINE
 8
GROUP0
10
3078.53443363764
20
701.003980024432
30
0.000212661657578828
11
3078.28016384148
21
701.33535087433
31
0.000212750724031885
  0
LINE
 8
GROUP0
10
2765.16581286945
20
690.135300711005
30
0.000135489505481345
11
2787.16581286944
21
690.135300710992
31
0.000155723209848979
  0
LINE
 8
GROUP0
10
2787.16586445521
20
390.135309092926
30
2.4981856230788e-005
11
2765.16586445521
21
390.135309092921
31
2.97300081165019e-005
  0
LINE
 8
GROUP0
10
3078.86585457506
20
379.521000460336
30
9.09565292980474e-005
11
3079.25174393006
21
379.68084155359
31
9.14610778139036e-005
  0
LINE
 8
GROUP0
10
3082.11581626551
20
681.085310994746
30
0.000232566636964648
11
3081.94544539695
21
682.379406220259
31
0.000232709509799456
  0
LINE
 8
GROUP0
10
2765.16581571424
20
675.135300711024
30
0.000144837750634963
11
2775.16581761078
21
665.135300711021
31
0.000145280370272971
  0
LINE
 8
GROUP0
10
3087.16580448753
20
690.135352296731
30
0.000221717073510064
11
3109.16580448752
21
690.135352296727
31
0.000236144322349929
  0
LINE
 8
GROUP0
10
2776.71129561391
20
683.049411183165
30
0.000140088344789113
11
2776.76581429185
21
682.635300711001
31
0.000139918212376067
  0
LINE
 8
GROUP0
10
3081.26585607327
20
378.135362409342
30
9.30212343094539e-005
11
3081.2113378431
21
377.721251878235
31
9.27733700391897e-005
  0
LINE
 8
GROUP0
10
3080.46585757153
20
376.749720898295
30
9.14997569028131e-005
11
3080.07996821653
21
376.589879805041
31
9.0995208386957e-005
  0
LINE
 8
GROUP0
10
3100.71133597295
20
397.2212502065
30
8.48419978689563e-005
11
3100.55149529695
21
396.835360678665
31
8.46384777069886e-005
  0
LINE
 8
GROUP0
10
3100.55149529695
20
396.835360678665
30
8.46384777069886e-005
11
3100.29722550079
21
396.503989828766
31
8.44380987169657e-005
  0
LINE
 8
GROUP0
10
3079.66585434327
20
379.73536067929
30
9.19497521969958e-005
11
3080.07996487438
21
379.680842449118
31
9.2389250109548e-005
  0
LINE
 8
GROUP0
10
3100.29722550079
20
396.503989828766
30
8.44380987169657e-005
11
3099.96585465089
21
396.24972003261
31
8.42545163948216e-005
  0
LINE
 8
GROUP0
10
3081.05149585432
20
378.93536217755
30
9.31418101881576e-005
11
3081.21133694757
21
378.54947282255
31
9.31469023933928e-005
  0
LINE
 8
GROUP0
10
3078.28021629228
20
377.335359181082
30
8.93144760127029e-005
11
3078.12037519902
21
377.721248536081
31
8.93093838074677e-005
  0
LINE
 8
GROUP0
10
3100.71133597295
20
398.049471150828
30
8.52037145861573e-005
11
3100.76585465089
21
397.635360678664
31
8.50347896376391e-005
  0
LINE
 8
GROUP0
10
3099.16580448753
20
665.135352296733
30
0.000217606081071864
11
3109.16580505558
21
675.135352296729
31
0.000228965874552856
  0
LINE
 8
GROUP0
10
3078.12032316547
20
702.549461346493
30
0.000213245986916988
11
3078.28016384148
21
702.935350874329
31
0.000213449507078955
  0
LINE
 8
GROUP0
10
3078.06585607332
20
378.135358949289
30
8.94350518914067e-005
11
3078.12037430349
21
378.549469480396
31
8.96829161616708e-005
  0
LINE
 8
GROUP0
10
2776.5514549379
20
683.435300711001
30
0.000140223721701815
11
2776.71129561391
21
683.049411183165
31
0.000140088344789113
  0
LINE
 8
GROUP0
10
2773.56581429185
20
682.635300711002
30
0.000139238481270709
11
2773.62033296979
21
683.049411183166
31
0.000139431774970866
  0
LINE
 8
GROUP0
10
3078.86580448754
20
703.520991520384
30
0.000213833468368563
11
3079.25169401537
21
703.680832196391
31
0.000213987743185129
  0
LINE
 8
GROUP0
10
3087.16580448754
20
712.13535229673
30
0.000215910617982296
11
3087.16580448753
21
690.135352296731
31
0.000221717073510064
  0
LINE
 8
GROUP0
10
3079.61581626551
20
676.755183975825
30
0.000230075689665377
11
3080.65135017144
21
677.549777088814
31
0.000230910948419449
  0
LINE
 8
GROUP0
10
3075.82172104
20
685.914940126193
30
0.000229390019101494
11
3074.61581626551
21
685.41543801367
31
0.000228501107777923
  0
LINE
 8
GROUP0
10
3099.57996512306
20
396.089879356603
30
8.41002416008152e-005
11
3099.16585465089
21
396.035360678666
31
8.39857878693451e-005
  0
LINE
 8
GROUP0
10
3078.28016384148
20
701.33535087433
30
0.000212750724031885
11
3078.12032316547
21
701.721240402166
31
0.000212884270177227
  0
LINE
 8
GROUP0
10
3072.11581626551
20
681.085310994748
30
0.000226010160478651
11
3072.28618713406
21
679.791215769236
31
0.000225867287666404
  0
LINE
 8
GROUP0
10
3081.05144513359
20
702.935350874328
30
0.000214056103684612
11
3081.2112858096
21
702.549461346493
31
0.00021392255751671
  0
LINE
 8
GROUP0
10
3080.79717533743
20
701.003980024431
30
0.000213156941647519
11
3080.46580448753
21
700.749710228275
31
0.000212973359325375
  0
LINE
 8
GROUP0
10
2793.71585417127
20
684.415439507892
30
0.00016694956646397
11
2792.68032026533
21
683.620846394902
31
0.000165797046162552
  0
LINE
 8
GROUP0
10
3079.25174393006
20
379.68084155359
30
9.14610778139036e-005
11
3079.66585434327
21
379.73536067929
31
9.19497521969958e-005
  0
LINE
 8
GROUP0
10
3097.78021400484
20
398.435360678665
30
8.47306641258427e-005
11
3098.03448380099
21
398.766731528563
31
8.49310431158656e-005
  0
LINE
 8
GROUP0
10
3097.78016297583
20
683.435350798469
30
0.000229270864124942
11
3098.03443241368
21
683.766721923295
31
0.000229766444109636
  0
LINE
 8
GROUP0
10
2773.79885433782
20
681.810955559164
30
0.000147376831671409
11
2773.7801736458
21
681.835300711003
31
0.000138932971944961
  0
LINE
 8
GROUP0
10
3081.2112858096
20
701.721240402165
30
0.000213560840799509
11
3081.05144513359
21
701.335350874329
31
0.000213357320614982
  0
LINE
 8
GROUP0
10
2775.57992476401
20
684.180782033063
30
0.000140344472892195
11
2775.96581429185
21
684.020941357056
31
0.000140356303350941
  0
LINE
 8
GROUP0
10
2791.88572715235
20
682.58531248897
30
0.000164549729506902
11
2791.38622503982
21
681.379407714483
31
0.000163292619039979
  0
LINE
 8
GROUP0
10
2794.25170406836
20
700.589818940532
30
0.000171234769686102
11
2793.8658143677
21
700.749659199287
31
0.000171568651800058
  0
LINE
 8
GROUP0
10
2775.16581429185
20
681.035300711003
30
0.000138876261448928
11
2774.75170381969
21
681.08981938894
31
0.000138812220754581
  0
LINE
 8
GROUP0
10
2793.71585417127
20
675.75518547005
30
0.000159567834908358
11
2794.92175894575
21
675.255683357526
31
0.000159695496325085
  0
LINE
 8
GROUP0
10
2799.7513880772
20
683.620846394902
30
0.000169042145558151
11
2798.71585417127
21
684.415439507891
31
0.000169244198254681
  0
LINE
 8
GROUP0
10
3099.1658062169
20
681.035352296755
30
0.000226341913224637
11
3098.75169568579
21
681.089870526928
31
0.000226330152746179
  0
LINE
 8
GROUP0
10
2795.49022280367
20
700.768390222908
30
0.000176405889788356
11
2795.46581436767
21
700.749660929315
31
0.000170465646387719
  0
LINE
 8
GROUP0
10
2775.96581429185
20
681.249660064947
30
0.000139140255837233
11
2775.57992476401
21
681.08981938894
31
0.00013898814810851
  0
LINE
 8
GROUP0
10
2795.49022255662
20
703.502210901917
30
0.000178173564255957
11
2795.797182496
21
703.266672783529
31
0.000171305770035168
  0
LINE
 8
GROUP0
10
2794.66581113941
20
703.735300710309
30
0.000172284662857081
11
2795.07992167052
21
703.680782480136
31
0.000171976038889632
  0
LINE
 8
GROUP0
10
2775.96581429185
20
684.020941357056
30
0.000140356303350941
11
2776.29718514175
21
683.766671560899
31
0.000140315117379508
  0
LINE
 8
GROUP0
10
3100.29722550079
20
398.766731528562
30
8.54263271845568e-005
11
3100.55149529695
21
398.435360678664
31
8.53372607540592e-005
  0
LINE
 8
GROUP0
10
2796.26581286941
20
702.135302440362
30
0.000170502398875527
11
2796.21129463924
21
701.721191909255
31
0.00017036417778975
  0
LINE
 8
GROUP0
10
2798.71585417127
20
684.415439507891
30
0.000169244198254681
11
2797.50994939678
21
684.914941620414
31
0.000169116536860514
  0
LINE
 8
GROUP0
10
3062.1658560733
20
378.135360678664
30
8.41630788913861e-005
11
3072.1658560733
21
368.135360110608
31
8.67880839004798e-005
  0
LINE
 8
GROUP0
10
3079.66585780332
20
376.535360679341
30
9.05065340038647e-005
11
3079.25174727222
21
376.589878909514
31
9.00670360913125e-005
  0
LINE
 8
GROUP0
10
2776.29718514175
20
683.766671560899
30
0.000140315117379508
11
2776.5514549379
21
683.435300711001
31
0.000140223721701815
  0
LINE
 8
GROUP0
10
3098.36585465089
20
399.021001324719
30
8.51146254380097e-005
11
3098.75174417873
21
399.180842000726
31
8.52689002320162e-005
  0
LINE
 8
GROUP0
10
2776.5514549379
20
681.835300711002
30
0.000139521636316076
11
2776.53276276855
21
681.810940601631
31
0.000148301159021713
  0
LINE
 8
GROUP0
10
3078.86585757156
20
376.749719168269
30
8.97066656937895e-005
11
3078.53448644673
21
377.003988606121
31
8.94499814707572e-005
  0
LINE
 8
GROUP0
10
2792.68032026534
20
676.549778583039
30
0.000159769887604888
11
2793.71585417127
21
675.75518547005
31
0.000159567834908358
  0
LINE
 8
GROUP0
10
2802.16581286944
20
712.13530127904
30
0.000179155543226628
11
2787.16581286944
21
712.135300710984
31
0.000174898610574559
  0
LINE
 8
GROUP0
10
3099.57991663011
20
681.089871422456
30
0.000226499623865806
11
3099.1658062169
21
681.035352296755
31
0.000226341913224637
  0
LINE
 8
GROUP0
10
2774.75170381969
20
681.08981938894
30
0.000138812220754581
11
2774.36581429185
21
681.249660064948
31
0.000138800390295835
  0
LINE
 8
GROUP0
10
3097.62032271707
20
683.049461097809
30
0.000228721631164674
11
3097.78016297583
21
683.435350798469
31
0.000229270864124942
  0
LINE
 8
GROUP0
10
3081.2113378431
20
377.721251878235
30
9.27733700391897e-005
11
3081.05149758434
21
377.335362177575
31
9.2420201091592e-005
  0
LINE
 8
GROUP0
10
2812.16581286944
20
702.135300710988
30
0.000172088136798543
11
2802.16581286944
21
712.13530127904
31
0.000179155543226628
  0
LINE
 8
GROUP0
10
3072.78568924659
20
678.585310994748
30
0.000225957557906753
11
3073.58028235958
21
677.549777088816
31
0.000226274819454098
  0
LINE
 8
GROUP0
10
2775.16581429185
20
684.235300711001
30
0.000140280432175288
11
2775.57992476401
21
684.180782033063
31
0.000140344472892195
  0
LINE
 8
GROUP0
10
3098.03448380099
20
398.766731528563
30
8.49310431158656e-005
11
3098.36585465089
21
399.021001324719
31
8.51146254380097e-005
  0
LINE
 8
GROUP0
10
3079.25174727222
20
376.589878909514
30
9.00670360913125e-005
11
3078.86585757156
21
376.749719168269
31
8.97066656937895e-005
  0
LINE
 8
GROUP0
10
3077.11581626551
20
686.085310994747
30
0.000230272005173937
11
3075.82172104
21
685.914940126193
31
0.000229390019101494
  0
LINE
 8
GROUP0
10
2795.46581137118
20
703.520942221381
30
0.000171642156753116
11
2795.49022255662
21
703.502210901917
31
0.000178173564255957
  0
LINE
 8
GROUP0
10
3087.1658560733
20
390.135360678664
30
9.09757198918726e-005
11
3087.1658560733
21
368.135360678664
31
9.09757198918726e-005
  0
LINE
 8
GROUP0
10
3072.16580448756
20
712.135349451931
30
0.000226803745429649
11
3062.16580448756
21
702.135347555396
31
0.000222953976638607
  0
LINE
 8
GROUP0
10
3109.16585607329
20
390.135360678664
30
8.04211125009502e-005
11
3087.1658560733
21
390.135360678664
31
9.09757198918726e-005
  0
LINE
 8
GROUP0
10
2776.29718514175
20
681.503929861104
30
0.000139322218731586
11
2775.96581429185
21
681.249660064947
31
0.000139140255837233
  0
LINE
 8
GROUP0
10
3098.36580298864
20
684.020992077748
30
0.000230174598207533
11
3098.75169234364
21
684.180833171002
31
0.000230467511374677
  0
LINE
 8
GROUP0
10
3079.66580448753
20
700.53535087433
30
0.000212704630799898
11
3079.25169401537
21
700.589869552268
31
0.000212637797977777
  0
LINE
 8
GROUP0
10
2800.54598119019
20
682.585312488969
30
0.000168524148351423
11
2799.7513880772
21
683.620846394902
31
0.000169042145558151
  0
LINE
 8
GROUP0
10
3077.11581626551
20
676.085310994748
30
0.000228304792269363
11
3078.40991149102
21
676.255681863302
31
0.000229186778341806
  0
LINE
 8
GROUP0
10
3100.55149529695
20
398.435360678664
30
8.53372607540592e-005
11
3100.71133597295
21
398.049471150828
31
8.52037145861573e-005
  0
LINE
 8
GROUP0
10
3099.16580275685
20
684.235352296703
30
0.000230625222015846
11
3099.57991328795
21
684.18083406653
31
0.000230636982494303
  0
LINE
 8
GROUP0
10
3080.46585457504
20
379.521002190362
30
9.2749620507071e-005
11
3080.79722569986
21
379.26673275251
31
9.30063047301033e-005
  0
LINE
 8
GROUP0
10
2787.16586445521
20
368.13530909294
30
0.0
11
2787.16586445521
21
390.135309092926
31
2.4981856230788e-005
  0
LINE
 8
GROUP0
10
3081.44594328443
20
683.585310994747
30
0.000232619239559106
11
3080.65135017144
21
684.62084490068
31
0.000232301978011762
  0
LINE
 8
GROUP0
10
2795.07997492737
20
379.680791837398
30
1.33474553612345e-005
11
2795.46586445521
21
379.52095116139
31
1.33610168733256e-005
  0
LINE
 8
GROUP0
10
3080.07996487438
20
379.680842449118
30
9.2389250109548e-005
11
3080.46585457504
21
379.521002190362
31
9.2749620507071e-005
  0
LINE
 8
GROUP0
10
2774.03444344195
20
683.7666715609
30
0.00013983447491519
11
2774.36581429185
21
684.020941357056
31
0.000140016437786983
  0
LINE
 8
GROUP0
10
3080.79722569986
20
379.26673275251
30
9.30063047301033e-005
11
3081.05149585432
21
378.93536217755
31
9.31418101881576e-005
  0
LINE
 8
GROUP0
10
3081.21133694757
20
378.54947282255
30
9.31469023933928e-005
11
3081.26585607327
21
378.135362409342
31
9.30212343094539e-005
  0
LINE
 8
GROUP0
10
2799.7513880772
20
676.549778583038
30
0.000163014987000487
11
2800.54598119019
21
677.585312488971
31
0.000164262303656137
  0
LINE
 8
GROUP0
10
3097.5658044869
20
682.635350566702
30
0.000228156174576277
11
3097.62032271707
21
683.049461097809
31
0.000228721631164674
  0
LINE
 8
GROUP0
10
3097.62037332883
20
398.049471150829
30
8.45271439638751e-005
11
3097.78021400484
21
398.435360678665
31
8.47306641258427e-005
  0
LINE
 8
GROUP0
10
2795.07992501267
20
700.58981983606
30
0.000170663812087568
11
2794.66581459946
21
700.535300710359
31
0.000170926145718653
  0
LINE
 8
GROUP0
10
3099.96580298861
20
684.020993807775
30
0.000230501991262777
11
3100.29717411344
21
683.766724369922
31
0.000230229447818964
  0
LINE
 8
GROUP0
10
2795.797182496
20
703.266672783529
30
0.000171305770035168
11
2796.05145265046
21
702.93530220857
31
0.000170989802852439
  0
LINE
 8
GROUP0
10
3080.65135017144
20
677.549777088814
30
0.000230910948419449
11
3081.44594328443
21
678.585310994747
31
0.000231635633106819
  0
LINE
 8
GROUP0
10
3078.28021456225
20
378.935359181056
30
9.00360851092685e-005
11
3078.5344840001
21
379.266730305883
31
9.04704908391451e-005
  0
LINE
 8
GROUP0
10
3099.16585465089
20
396.035360678666
30
8.39857878693451e-005
11
3098.75174417873
21
396.089879356603
31
8.39189550472241e-005
  0
LINE
 8
GROUP0
10
3078.12037519902
20
377.721248536081
30
8.93093838074677e-005
11
3078.06585607332
21
378.135358949289
31
8.94350518914067e-005
  0
LINE
 8
GROUP0
10
2773.62033296979
20
682.221190238839
30
0.000139068348835103
11
2773.56581429185
21
682.635300711002
31
0.000139238481270709
  0
LINE
 8
GROUP0
10
2798.71585417127
20
675.755185470049
30
0.00016186246669907
11
2799.7513880772
21
676.549778583038
31
0.000163014987000487
  0
LINE
 8
GROUP0
10
3072.78568924659
20
683.585310994748
30
0.00022694116435904
11
3072.28618713406
21
682.379406220261
31
0.000226376439833942
  0
LINE
 8
GROUP0
10
3097.56585465089
20
397.635360678665
30
8.43343521951923e-005
11
3097.62037332883
21
398.049471150829
31
8.45271439638751e-005
  0
LINE
 8
GROUP0
10
2797.50994939678
20
675.255683357526
30
0.000160883285135149
11
2798.71585417127
21
675.755185470049
31
0.00016186246669907
  0
LINE
 8
GROUP0
10
3100.76585465089
20
397.635360678664
30
8.50347896376391e-005
11
3100.71133597295
21
397.2212502065
31
8.48419978689563e-005
  0
LINE
 8
GROUP0
10
3080.79717533743
20
703.266721724227
30
0.00021414517011511
11
3081.05144513359
21
702.935350874328
31
0.000214056103684612
  0
LINE
 8
GROUP0
10
2773.62033296979
20
683.049411183166
30
0.000139431774970866
11
2773.7801736458
21
683.435300711002
31
0.000139635057308141
  0
LINE
 8
GROUP0
10
2774.36581429185
20
681.249660064948
30
0.000138800390295835
11
2774.03444344195
21
681.503929861105
31
0.000138841576267268
  0
LINE
 8
GROUP0
10
2793.12033199516
20
701.721188567098
30
0.000172495020670738
11
2793.06581286946
21
702.135298980307
31
0.000172708409700206
  0
LINE
 8
GROUP0
10
3081.26580448753
20
702.135350874329
30
0.000213753632568192
11
3081.2112858096
21
701.721240402165
31
0.000213560840799509
  0
LINE
 8
GROUP0
10
3078.28016384148
20
702.935350874329
30
0.000213449507078955
11
3078.53443363764
21
703.266721724228
31
0.000213649886068978
  0
LINE
 8
GROUP0
10
3081.94544539695
20
679.791215769234
30
0.000232200357631918
11
3082.11581626551
21
681.085310994746
31
0.000232566636964648
  0
LINE
 8
GROUP0
10
2793.12033109963
20
702.549409511414
30
0.000172846630763424
11
2793.28017135839
21
702.935299212074
31
0.000172900264292508
  0
LINE
 8
GROUP0
10
3079.25169401537
20
703.680832196391
30
0.000213987743185129
11
3079.66580448753
21
703.735350874328
31
0.000214102196894039
  0
LINE
 8
GROUP0
10
2793.8658113712
20
703.520940491354
30
0.000172745162188015
11
2794.2517007262
21
703.680781584608
31
0.000172546996488165
  0
LINE
 8
GROUP0
10
2800.54598119019
20
677.585312488971
30
0.000164262303656137
11
2801.04548330271
21
678.791217263458
31
0.000165519414123061
  0
LINE
 8
GROUP0
10
2792.68032026533
20
683.620846394902
30
0.000165797046162552
11
2791.88572715235
21
682.58531248897
31
0.000164549729506902
  0
LINE
 8
GROUP0
10
2794.92175894575
20
684.914941620414
30
0.00016792874802789
11
2793.71585417127
21
684.415439507892
31
0.00016694956646397
  0
LINE
 8
GROUP0
10
3080.46580448753
20
700.749710228275
30
0.000212973359325375
11
3080.0799149597
21
700.589869552267
31
0.000212819084531368
  0
LINE
 8
GROUP0
10
3109.16580448752
20
690.135352296727
30
0.000236144322349929
11
3109.16580505558
21
675.135352296729
31
0.000228965874552856
  0
LINE
 8
GROUP0
10
3072.28618713406
20
682.379406220261
30
0.000226376439833942
11
3072.11581626551
21
681.085310994748
31
0.000226010160478651
  0
LINE
 8
GROUP0
10
3078.06580448753
20
702.13535087433
30
0.000213053195125745
11
3078.12032316547
21
702.549461346493
31
0.000213245986916988
  0
LINE
 8
GROUP0
10
3081.05144513359
20
701.335350874329
30
0.000213357320614982
11
3080.79717533743
21
701.003980024431
31
0.000213156941647519
  0
LINE
 8
GROUP0
10
3099.57996512306
20
399.180842000726
30
8.54501867856072e-005
11
3099.96585465089
21
399.021001324719
31
8.54648441592332e-005
  0
LINE
 8
GROUP0
10
2795.46581436767
20
700.749660929315
30
0.000170465646387719
11
2795.07992501267
21
700.58981983606
31
0.000170663812087568
  0
LINE
 8
GROUP0
10
3080.0799149597
20
700.589869552267
30
0.000212819084531368
11
3079.66580448753
21
700.53535087433
31
0.000212704630799898
  0
LINE
 8
GROUP0
10
3098.75174417873
20
399.180842000726
30
8.52689002320162e-005
11
3099.16585465089
21
399.235360678664
31
8.53833539634863e-005
  0
LINE
 8
GROUP0
10
2793.53444079624
20
703.266670336901
30
0.000172865655227383
11
2793.8658113712
21
703.520940491354
31
0.000172745162188015
  0
LINE
 8
GROUP0
10
2791.21585417127
20
680.085312488971
30
0.000162111384802088
11
2791.38622503982
21
678.791217263459
31
0.000161086525894838
  0
LINE
 8
GROUP0
10
2774.36581429185
20
684.020941357056
30
0.000140016437786983
11
2774.75170381969
21
684.180782033064
31
0.000140168545538266
  0
LINE
 8
GROUP0
10
3072.28618713406
20
679.791215769236
30
0.000225867287666404
11
3072.78568924659
21
678.585310994748
31
0.000225957557906753
  0
LINE
 8
GROUP0
10
2774.03444344195
20
681.503929861105
30
0.000138841576267268
11
2773.79885433782
21
681.810955559164
31
0.000147376831671409
  0
LINE
 8
GROUP0
10
2774.75170381969
20
684.180782033064
30
0.000140168545538266
11
2775.16581429185
21
684.235300711001
31
0.000140280432175288
  0
LINE
 8
GROUP0
10
2793.28017135839
20
702.935299212074
30
0.000172900264292508
11
2793.53444079624
21
703.266670336901
31
0.000172865655227383
  0
LINE
 8
GROUP0
10
3073.58028235958
20
677.549777088816
30
0.000226274819454098
11
3074.61581626551
21
676.755183975826
31
0.000226797451444938
  0
LINE
 8
GROUP0
10
2796.05145438048
20
701.335302208595
30
0.000170310544283225
11
2795.79718494263
21
701.003931083768
31
0.00017034515332579
  0
LINE
 8
GROUP0
10
2796.21129463924
20
701.721191909255
30
0.00017036417778975
11
2796.05145438048
21
701.335302208595
31
0.000170310544283225
  0
LINE
 8
GROUP0
10
3097.78016470585
20
681.835350798495
30
0.000227129209718058
11
3097.6203236126
21
682.221240153494
31
0.000227613029269413
  0
LINE
 8
GROUP0
10
2773.7801736458
20
683.435300711002
30
0.000139635057308141
11
2774.03444344195
21
683.7666715609
31
0.00013983447491519
  0
LINE
 8
GROUP0
10
3078.53448644673
20
377.003988606121
30
8.94499814707572e-005
11
3078.28021629228
21
377.335359181082
31
8.93144760127029e-005
  0
LINE
 8
GROUP0
10
3109.1658532285
20
405.135360678634
30
0.000100823571536246
11
3099.16585133196
21
415.135360678634
31
0.000105708591262221
  0
LINE
 8
GROUP0
10
3081.05149758434
20
377.335362177575
30
9.2420201091592e-005
11
3080.79722814649
21
377.003991052748
31
9.19857953617154e-005
  0
LINE
 8
GROUP0
10
2802.16586445518
20
368.135311937725
30
2.06150457730203e-005
11
2787.16586445521
21
368.13530909294
31
0.0
  0
LINE
 8
GROUP0
10
3099.96580598511
20
681.24971251571
30
0.000226792537032949
11
3099.57991663011
21
681.089871422456
31
0.000226499623865806
  0
LINE
 8
GROUP0
10
2775.57992476401
20
681.08981938894
30
0.00013898814810851
11
2775.16581429185
21
681.035300711003
31
0.000138876261448928
  0
LINE
 8
GROUP0
10
3098.36580598513
20
681.249710785684
30
0.000226465143977705
11
3098.03443486031
21
681.503980223536
31
0.000226737687421519
  0
LINE
 8
GROUP0
10
2793.53444324287
20
701.003928637139
30
0.000171905038540565
11
2793.28017308842
21
701.335299212099
31
0.000172221005723294
  0
LINE
 8
GROUP0
10
2776.71129561391
20
682.221190238838
30
0.00013972491865335
11
2776.5514549379
21
681.835300711002
31
0.000139521636316076
  0
LINE
 8
GROUP0
10
3081.2112858096
20
702.549461346493
30
0.00021392255751671
11
3081.26580448753
21
702.135350874329
31
0.000213753632568192
  0
LINE
 8
GROUP0
10
2795.79718494263
20
701.003931083768
30
0.00017034515332579
11
2795.49022280367
21
700.768390222908
31
0.000176405889788356
  0
LINE
 8
GROUP0
10
3081.94544539695
20
682.379406220259
30
0.000232709509799456
11
3081.44594328443
21
683.585310994747
31
0.000232619239559106
  0
LINE
 8
GROUP0
10
3098.75169568579
20
681.089870526928
30
0.000226330152746179
11
3098.36580598513
21
681.249710785684
31
0.000226465143977705
  0
LINE
 8
GROUP0
10
3074.61581626551
20
685.41543801367
30
0.000228501107777923
11
3073.58028235958
21
684.620844900681
31
0.00022766584902385
  0
LINE
 8
GROUP0
10
2793.06581286946
20
702.135298980307
30
0.000172708409700206
11
2793.12033109963
21
702.549409511414
31
0.000172846630763424
  0
LINE
 8
GROUP0
10
3080.79722814649
20
377.003991052748
30
9.19857953617154e-005
11
3080.46585757153
21
376.749720898295
31
9.14997569028131e-005
  0
LINE
 8
GROUP0
10
3080.07996821653
20
376.589879805041
30
9.0995208386957e-005
11
3079.66585780332
21
376.535360679341
31
9.05065340038647e-005
  0
LINE
 8
GROUP0
10
3078.12037430349
20
378.549469480396
30
8.96829161616708e-005
11
3078.28021456225
21
378.935359181056
31
9.00360851092685e-005
  0
LINE
 8
GROUP0
10
2801.21585417127
20
680.08531248897
30
0.000166700648383511
11
2801.04548330271
21
681.379407714482
31
0.000167725507268202
  0
LINE
 8
GROUP0
10
3081.44594328443
20
678.585310994747
30
0.000231635633106819
11
3081.94544539695
21
679.791215769234
31
0.000232200357631918
  0
LINE
 8
GROUP0
10
2794.92175894575
20
675.255683357526
30
0.000159695496325085
11
2796.21585417127
21
675.085312488972
31
0.000160144171897514
  0
LINE
 8
GROUP0
10
3097.6203236126
20
682.221240153494
30
0.000227613029269413
11
3097.5658044869
21
682.635350566702
31
0.000228156174576277
  0
LINE
 8
GROUP0
10
3098.75169234364
20
684.180833171002
30
0.000230467511374677
11
3099.16580275685
21
684.235352296703
31
0.000230625222015846
  0
LINE
 8
GROUP0
10
3100.55144426789
20
683.435353794963
30
0.000229837925522425
11
3100.71128536115
21
683.049464439964
31
0.000229354105971069
  0
LINE
 8
GROUP0
10
3099.57991328795
20
684.18083406653
30
0.000230636982494303
11
3099.96580298861
21
684.020993807775
31
0.000230501991262777
  0
LINE
 8
GROUP0
10
2791.38622503982
20
681.379407714483
30
0.000163292619039979
11
2791.21585417127
21
680.085312488971
31
0.000162111384802088
  0
LINE
 8
GROUP0
10
3097.78021400484
20
396.835360678666
30
8.40318810787721e-005
11
3097.62037332883
21
397.221250206501
31
8.41654272466741e-005
  0
LINE
 8
GROUP0
10
3100.76580448685
20
682.635354026756
30
0.000228810960664205
11
3100.71128625668
21
682.22124349565
31
0.000228245504075808
  0
LINE
 8
GROUP0
10
3078.40991149102
20
685.914940126193
30
0.000231086960101656
11
3077.11581626551
21
686.085310994747
31
0.000230272005173937
  0
LINE
 8
GROUP0
10
2793.8658143677
20
700.749659199287
30
0.000171568651800058
11
2793.53444324287
21
701.003928637139
31
0.000171905038540565
  0
LINE
 8
GROUP0
10
3078.12032316547
20
701.721240402166
30
0.000212884270177227
11
3078.06580448753
21
702.13535087433
31
0.000213053195125745
  0
LINE
 8
GROUP0
10
3073.58028235958
20
684.620844900681
30
0.00022766584902385
11
3072.78568924659
21
683.585310994748
31
0.00022694116435904
  0
LINE
 8
GROUP0
10
3098.03443241368
20
683.766721923295
30
0.000229766444109636
11
3098.36580298864
21
684.020992077748
31
0.000230174598207533
  0
LINE
 8
GROUP0
10
2797.21585267707
20
404.185350394746
30
4.8198516338438e-005
11
2795.92175745156
21
404.014979526191
31
4.83413891732454e-005
  0
LINE
 8
GROUP0
10
2795.07992167052
20
703.680782480136
30
0.000171976038889632
11
2795.46581137118
21
703.520942221381
31
0.000171642156753116
  0
LINE
 8
GROUP0
10
2796.05145265046
20
702.93530220857
30
0.000170989802852439
11
2796.21129374371
21
702.54941285357
31
0.000170715787904996
  0
LINE
 8
GROUP0
10
3072.1658560733
20
368.135360110608
30
8.67880839004798e-005
11
3087.1658560733
21
368.135360678664
31
9.09757198918726e-005
  0
LINE
 8
GROUP0
10
3100.71128536115
20
683.049464439964
30
0.000229354105971069
11
3100.76580448685
21
682.635354026756
31
0.000228810960664205
  0
LINE
 8
GROUP0
10
3100.29717411344
20
683.766724369922
30
0.000230229447818964
11
3100.55144426789
21
683.435353794963
31
0.000229837925522425
  0
LINE
 8
GROUP0
10
3109.1658532285
20
405.135360678634
30
0.000100823571536246
11
3109.16585607329
21
390.135360678664
31
8.04211125009502e-005
  0
LINE
 8
GROUP0
10
2791.88572715235
20
677.585312488972
30
0.000160287884811616
11
2792.68032026534
21
676.549778583039
31
0.000159769887604888
  0
LINE
 8
GROUP0
10
3100.71128625668
20
682.22124349565
30
0.000228245504075808
11
3100.55144599792
21
681.835353794989
31
0.000227696271115541
  0
LINE
 8
GROUP0
10
3078.40991149102
20
676.255681863302
30
0.000229186778341806
11
3079.61581626551
21
676.755183975825
31
0.000230075689665377
  0
LINE
 8
GROUP0
10
2787.16581286944
20
690.135300710992
30
0.000155723209848979
11
2787.16581286944
21
712.135300710984
31
0.000174898610574559
  0
LINE
 8
GROUP0
10
2801.04548330271
20
678.791217263458
30
0.000165519414123061
11
2801.21585417127
21
680.08531248897
31
0.000166700648383511
  0
LINE
 8
GROUP0
10
2791.38622503982
20
678.791217263459
30
0.000161086525894838
11
2791.88572715235
21
677.585312488972
31
0.000160287884811616
  0
LINE
 8
GROUP0
10
3099.96585465089
20
399.021001324719
30
8.54648441592332e-005
11
3100.29722550079
21
398.766731528562
31
8.54263271845568e-005
  0
LINE
 8
GROUP0
10
2801.04548330271
20
681.379407714482
30
0.000167725507268202
11
2800.54598119019
21
682.585312488969
31
0.000168524148351423
  0
LINE
 8
GROUP0
10
3098.36585465089
20
396.249720032611
30
8.39042976735982e-005
11
3098.03448380099
21
396.503989828767
31
8.39428146482746e-005
  0
LINE
 8
GROUP0
10
2796.21129374371
20
702.54941285357
30
0.000170715787904996
11
2796.26581286941
21
702.135302440362
31
0.000170502398875527
  0
LINE
 8
GROUP0
10
3098.03448380099
20
396.503989828767
30
8.39428146482746e-005
11
3097.78021400484
21
396.835360678666
31
8.40318810787721e-005
  0
LINE
 8
GROUP0
10
3099.96585465089
20
396.24972003261
30
8.42545163948216e-005
11
3099.57996512306
21
396.089879356603
31
8.41002416008152e-005
  0
LINE
 8
GROUP0
10
3098.75174417873
20
396.089879356603
30
8.39189550472241e-005
11
3098.36585465089
21
396.249720032611
31
8.39042976735982e-005
  0
LINE
 8
GROUP0
10
2797.50994939678
20
684.914941620414
30
0.000169116536860514
11
2796.21585417127
21
685.085312488969
31
0.000168667861288085
  0
LINE
 8
GROUP0
10
3080.46580448753
20
703.520991520383
30
0.000214183687089786
11
3080.79717533743
21
703.266721724227
31
0.00021414517011511
  0
LINE
 8
GROUP0
10
2794.66581459946
20
700.535300710359
30
0.000170926145718653
11
2794.25170406836
21
700.589818940532
31
0.000171234769686102
  0
LINE
 8
GROUP0
10
3078.5344840001
20
379.266730305883
30
9.04704908391451e-005
11
3078.86585457506
21
379.521000460336
31
9.09565292980474e-005
  0
LINE
 8
GROUP0
10
3100.29717656007
20
681.503982670163
30
0.000227200691130847
11
3099.96580598511
21
681.24971251571
31
0.000226792537032949
  0
LINE
 8
GROUP0
10
2776.76581429185
20
682.635300711001
30
0.000139918212376067
11
2776.71129561391
21
682.221190238838
31
0.00013972491865335
 0
ENDSEC
 0
EOF
